<svg width="16" height="16" viewBox="0 0 16 16" fill="none" xmlns="http://www.w3.org/2000/svg">
<path d="M7.00732 15.001C7.0079 15.5533 7.45608 16.0006 8.00837 16C8.56065 15.9994 9.0079 15.5512 9.00732 14.999L7.00732 15.001ZM8.69911 0.292165C8.30818 -0.0979527 7.67502 -0.0972933 7.2849 0.293638L0.927571 6.66422C0.537453 7.05515 0.538113 7.68832 0.929044 8.07844C1.31997 8.46855 1.95314 8.46789 2.34326 8.07696L7.99422 2.41422L13.657 8.06518C14.0479 8.4553 14.6811 8.45464 15.0712 8.06371C15.4613 7.67278 15.4606 7.03961 15.0697 6.64949L8.69911 0.292165ZM9.00732 14.999L8.99274 0.998966L6.99274 1.00105L7.00732 15.001L9.00732 14.999Z" fill="#121511"/>
</svg>
