<svg width="32" height="32" viewBox="0 0 32 32" fill="none" xmlns="http://www.w3.org/2000/svg">
<path d="M2.66602 5.334C2.66602 2.388 8.63601 0 16 0C23.364 0 29.334 2.388 29.334 5.334V8C29.334 10.946 23.364 13.334 16 13.334C8.63601 13.334 2.66602 10.946 2.66602 8V5.334Z" fill="white"/>
<path d="M2.66602 12.668V18.668C2.66602 21.61 8.63601 24 16 24C23.364 24 29.334 21.612 29.334 18.666V12.668C28.4333 13.3168 27.4534 13.8478 26.418 14.248C23.62 15.368 19.934 16 16 16C12.068 16 8.38202 15.366 5.58402 14.248C4.54862 13.8478 3.56867 13.3168 2.66802 12.668H2.66602Z" fill="white"/>
<path d="M29.334 23.336C28.4332 23.9841 27.4533 24.5144 26.418 24.914C23.618 26.034 19.934 26.666 15.998 26.666C12.066 26.666 8.38002 26.034 5.58202 24.914C4.54664 24.5138 3.56669 23.9828 2.66602 23.334V26.666C2.66602 29.612 8.63601 32 16 32C23.364 32 29.334 29.612 29.334 26.666V23.336Z" fill="white"/>
</svg>
