<svg width="32" height="32" viewBox="0 0 32 32" fill="none" xmlns="http://www.w3.org/2000/svg">
<path d="M0 16C0 11.7565 1.68571 7.68687 4.68629 4.68629C7.68687 1.68571 11.7565 0 16 0C20.2435 0 24.3131 1.68571 27.3137 4.68629C30.3143 7.68687 32 11.7565 32 16C32 20.2435 30.3143 24.3131 27.3137 27.3137C24.3131 30.3143 20.2435 32 16 32C11.7565 32 7.68687 30.3143 4.68629 27.3137C1.68571 24.3131 0 20.2435 0 16ZM15 2.154C13.66 2.562 12.33 3.794 11.226 5.864C10.8623 6.55219 10.5494 7.2661 10.29 8H15V2.154ZM8.18 8C8.51334 6.93763 8.94174 5.90747 9.46 4.922C9.80581 4.26811 10.2052 3.64398 10.654 3.056C8.17601 4.08365 6.04401 5.79924 4.51 8H8.18ZM7.016 15C7.076 13.246 7.292 11.564 7.64 10H3.348C2.60224 11.5701 2.15723 13.266 2.036 15H7.016ZM9.694 10C9.30063 11.6396 9.07414 13.3148 9.018 15H15V10H9.694ZM17 10V15H22.98C22.9246 13.3149 22.6988 11.6397 22.306 10H17ZM9.02 17C9.07549 18.6851 9.3013 20.3603 9.694 22H15V17H9.02ZM17 17V22H22.306C22.68 20.47 22.918 18.784 22.982 17H17ZM10.29 24C10.566 24.772 10.88 25.488 11.226 26.136C12.33 28.206 13.662 29.436 15 29.846V24H10.29ZM10.654 28.944C10.2051 28.356 9.80578 27.7319 9.46 27.078C8.94175 26.0925 8.51336 25.0624 8.18 24H4.51C6.04393 26.2008 8.17595 27.9164 10.654 28.944ZM7.64 22C7.27833 20.3561 7.06944 18.6823 7.016 17H2.036C2.16 18.78 2.618 20.466 3.348 22H7.64ZM21.346 28.944C23.8241 27.9164 25.9561 26.2008 27.49 24H23.82C23.4866 25.0624 23.0582 26.0925 22.54 27.078C22.1943 27.7319 21.7949 28.3561 21.346 28.944ZM17 24V29.846C18.34 29.438 19.67 28.206 20.774 26.136C21.12 25.488 21.434 24.772 21.71 24H17ZM24.36 22H28.652C29.382 20.466 29.84 18.78 29.964 17H24.984C24.9306 18.6823 24.7217 20.3561 24.36 22ZM29.964 15C29.8427 13.266 29.3977 11.5701 28.652 10H24.36C24.708 11.564 24.924 13.246 24.984 15H29.964ZM22.54 4.922C23.034 5.85 23.464 6.882 23.82 8H27.49C25.9561 5.79917 23.8241 4.08356 21.346 3.056C21.782 3.624 22.182 4.252 22.54 4.922ZM21.71 8C21.4506 7.26609 21.1378 6.55218 20.774 5.864C19.67 3.794 18.34 2.564 17 2.154V8H21.71Z" fill="white"/>
</svg>
