<svg width="27" height="22" viewBox="0 0 27 22" fill="none" xmlns="http://www.w3.org/2000/svg">
<g clip-path="url(#clip0_13_514)">
<path d="M26.2052 2.34008C24.5687 1.64098 22.931 1.375 21.2941 1.375C16.0979 1.37457 10.9021 4.05367 5.70586 4.05367C4.40269 4.05367 3.10036 3.88523 1.79719 3.46414C1.6508 3.41688 1.50398 3.39453 1.36055 3.39453C0.6345 3.39453 0 3.96687 0 4.76137V18.3936C0 18.9363 0.305016 19.4507 0.794812 19.6595C2.43127 20.359 4.06898 20.625 5.70586 20.625C10.9021 20.625 16.0983 17.9459 21.2946 17.9459C22.5977 17.9459 23.9001 18.1143 25.2032 18.5354C25.3496 18.5827 25.4964 18.605 25.6399 18.605C26.3659 18.605 27.0004 18.0327 27.0004 17.2382V3.60637C27 3.06324 26.695 2.54934 26.2052 2.34008ZM2.025 5.68133C2.87381 5.89789 3.75975 6.0066 4.671 6.06504C4.42294 7.32789 3.33281 8.27965 2.025 8.27965V5.68133ZM2.025 17.9274V15.8744C3.47498 15.8744 4.64822 17.0461 4.71277 18.5127C3.76228 18.4349 2.87381 18.2415 2.025 17.9274ZM13.5 15.125C11.6357 15.125 10.125 13.2778 10.125 11C10.125 8.7218 11.6362 6.875 13.5 6.875C15.3638 6.875 16.875 8.7218 16.875 11C16.875 13.2786 15.3634 15.125 13.5 15.125ZM24.975 16.3187C24.2359 16.13 23.4685 16.0243 22.6834 15.956C22.931 14.8354 23.8435 13.9846 24.975 13.8385V16.3187ZM24.975 6.17332C23.6718 6.00531 22.6606 4.89715 22.6205 3.52859C23.4449 3.62184 24.2274 3.79629 24.975 4.07258V6.17332Z" fill="#74E262"/>
</g>
<defs>
<clipPath id="clip0_13_514">
<rect width="27" height="22" fill="white"/>
</clipPath>
</defs>
</svg>
