<svg width="32" height="32" viewBox="0 0 32 32" fill="none" xmlns="http://www.w3.org/2000/svg">
<g clip-path="url(#clip0_4_523)">
<path d="M16.372 2.22607C16.1332 2.13038 15.8668 2.13038 15.628 2.22607L3.692 7.00007L16 11.9221L28.308 7.00007L16.372 2.22607ZM30 8.47807L17 13.6781V29.5221L30 24.3221V8.48007V8.47807ZM15 29.5241V13.6761L2 8.47807V24.3241L15 29.5241V29.5241ZM14.886 0.368066C15.6011 0.0820641 16.3989 0.0820641 17.114 0.368066L31.372 6.07207C31.5574 6.14636 31.7163 6.27445 31.8282 6.43985C31.9401 6.60524 32 6.80036 32 7.00007V24.3241C31.9997 24.7237 31.8798 25.1141 31.6555 25.4449C31.4313 25.7757 31.1131 26.0318 30.742 26.1801L16.372 31.9281C16.1332 32.0238 15.8668 32.0238 15.628 31.9281L1.26 26.1801C0.888502 26.0321 0.569885 25.7762 0.345284 25.4454C0.120683 25.1145 0.000412659 24.7239 0 24.3241L0 7.00007C4.64799e-05 6.80036 0.0598875 6.60524 0.171814 6.43985C0.283741 6.27445 0.442625 6.14636 0.628 6.07207L14.886 0.368066Z" fill="white"/>
</g>
<defs>
<clipPath id="clip0_4_523">
<rect width="32" height="32" fill="white"/>
</clipPath>
</defs>
</svg>
