<svg width="26" height="26" viewBox="0 0 26 26" fill="none" xmlns="http://www.w3.org/2000/svg">
<path d="M13 3.25C10.8554 3.25673 8.78391 4.03022 7.15975 5.43075C5.915 6.50325 5.01312 7.90075 4.78075 9.30312C2.05725 9.90438 0 12.2769 0 15.1417C0 18.4697 2.7755 21.125 6.14412 21.125H20.6164C23.5658 21.125 26 18.8012 26 15.8811C26 13.2226 23.9818 11.0565 21.3948 10.6909C20.9999 6.49838 17.3713 3.25 13 3.25ZM16.8253 11.1378L11.9503 16.0128C11.8748 16.0884 11.7851 16.1484 11.6864 16.1894C11.5877 16.2304 11.4819 16.2515 11.375 16.2515C11.2681 16.2515 11.1623 16.2304 11.0636 16.1894C10.9649 16.1484 10.8752 16.0884 10.7997 16.0128L8.36225 13.5753C8.28671 13.4997 8.22678 13.41 8.1859 13.3113C8.14502 13.2126 8.12397 13.1068 8.12397 13C8.12397 12.8932 8.14502 12.7874 8.1859 12.6887C8.22678 12.59 8.28671 12.5003 8.36225 12.4247C8.43779 12.3492 8.52748 12.2893 8.62618 12.2484C8.72488 12.2075 8.83067 12.1865 8.9375 12.1865C9.04433 12.1865 9.15012 12.2075 9.24882 12.2484C9.34752 12.2893 9.43721 12.3492 9.51275 12.4247L11.375 14.2886L15.6747 9.98725C15.8273 9.83468 16.0342 9.74897 16.25 9.74897C16.4658 9.74897 16.6727 9.83468 16.8253 9.98725C16.9778 10.1398 17.0635 10.3467 17.0635 10.5625C17.0635 10.7783 16.9778 10.9852 16.8253 11.1378Z" fill="#74E262"/>
</svg>
