<svg width="32" height="32" viewBox="0 0 32 32" fill="none" xmlns="http://www.w3.org/2000/svg">
<g clip-path="url(#clip0_4_521)">
<path d="M27.0898 5.81392C25.0149 4.86165 22.8253 4.182 20.5758 3.79192C20.5555 3.78848 20.5345 3.79145 20.5159 3.8004C20.4973 3.80936 20.4819 3.82386 20.4718 3.84192C20.1898 4.34192 19.8778 4.99592 19.6598 5.50792C17.2351 5.13993 14.7686 5.13993 12.3438 5.50792C12.1007 4.93756 11.8256 4.38134 11.5198 3.84192C11.5096 3.82406 11.4942 3.80972 11.4756 3.8008C11.457 3.79187 11.4362 3.78878 11.4158 3.79192C9.16585 4.17992 6.97585 4.85992 4.90185 5.81392C4.8841 5.82069 4.86926 5.83341 4.85985 5.84992C0.71185 12.0479 -0.42615 18.0939 0.131849 24.0639C0.133849 24.0919 0.151849 24.1199 0.173849 24.1379C2.5893 25.9272 5.29103 27.2932 8.16385 28.1779C8.18413 28.1843 8.20593 28.1841 8.22607 28.1773C8.24621 28.1704 8.26365 28.1573 8.27585 28.1399C8.89185 27.2999 9.43985 26.4139 9.91185 25.4819C9.92168 25.4627 9.92505 25.4409 9.92145 25.4196C9.91784 25.3983 9.90746 25.3788 9.89185 25.3639C9.88151 25.3542 9.86925 25.3467 9.85585 25.3419C8.99417 25.0108 8.15964 24.6129 7.35985 24.1519C7.33751 24.1393 7.3209 24.1185 7.31345 24.0939C7.306 24.0693 7.30829 24.0428 7.31985 24.0199C7.32665 24.005 7.33694 23.992 7.34985 23.9819C7.51785 23.8559 7.68585 23.7239 7.84585 23.5919C7.85998 23.5806 7.87694 23.5732 7.89491 23.5708C7.91287 23.5683 7.93117 23.5708 7.94785 23.5779C13.1858 25.9699 18.8558 25.9699 24.0298 23.5779C24.0471 23.5704 24.0661 23.5678 24.0848 23.5703C24.1034 23.5727 24.1211 23.5802 24.1358 23.5919C24.2958 23.7239 24.4638 23.8559 24.6318 23.9819C24.6455 23.9919 24.6564 24.005 24.6637 24.0202C24.6709 24.0355 24.6743 24.0522 24.6736 24.0691C24.6728 24.0859 24.6678 24.1023 24.6591 24.1168C24.6505 24.1312 24.6383 24.1433 24.6238 24.1519C23.8259 24.6171 22.9903 25.0145 22.1258 25.3399C22.1121 25.3449 22.0995 25.3529 22.0892 25.3632C22.0788 25.3736 22.0708 25.3861 22.0658 25.3999C22.0612 25.4133 22.0594 25.4274 22.0604 25.4415C22.0614 25.4556 22.0653 25.4694 22.0718 25.4819C22.5518 26.4119 23.1018 27.2999 23.7058 28.1399C23.718 28.1573 23.7355 28.1704 23.7556 28.1773C23.7758 28.1841 23.7976 28.1843 23.8178 28.1779C26.6955 27.296 29.4016 25.9297 31.8198 24.1379C31.832 24.1295 31.842 24.1185 31.8493 24.1057C31.8566 24.0929 31.8609 24.0786 31.8618 24.0639C32.5298 17.1619 30.7438 11.1659 27.1298 5.85192C27.1262 5.84314 27.1208 5.83522 27.1139 5.82868C27.107 5.82213 27.0988 5.8171 27.0898 5.81392ZM10.6938 20.4279C9.11585 20.4279 7.81785 18.9799 7.81785 17.2039C7.81785 15.4259 9.09185 13.9779 10.6938 13.9779C12.3078 13.9779 13.5938 15.4379 13.5698 17.2039C13.5698 18.9799 12.2958 20.4279 10.6938 20.4279ZM21.3258 20.4279C19.7498 20.4279 18.4498 18.9799 18.4498 17.2039C18.4498 15.4259 19.7238 13.9779 21.3258 13.9779C22.9398 13.9779 24.2278 15.4379 24.2018 17.2039C24.2018 18.9799 22.9398 20.4279 21.3258 20.4279Z" fill="white"/>
</g>
<defs>
<clipPath id="clip0_4_521">
<rect width="32" height="32" fill="white"/>
</clipPath>
</defs>
</svg>
