<svg width="24" height="24" viewBox="0 0 24 24" fill="none" xmlns="http://www.w3.org/2000/svg">
<g clip-path="url(#clip0_11_1345)">
<path d="M20.3173 4.3605C18.761 3.6463 17.1189 3.13656 15.4318 2.844C15.4165 2.84142 15.4008 2.84365 15.3868 2.85036C15.3728 2.85708 15.3613 2.86795 15.3538 2.8815C15.1423 3.2565 14.9083 3.747 14.7448 4.131C12.9262 3.85501 11.0764 3.85501 9.25777 4.131C9.07538 3.70323 8.86906 3.28607 8.63977 2.8815C8.63207 2.8681 8.6205 2.85735 8.60658 2.85066C8.59266 2.84396 8.57703 2.84164 8.56177 2.844C6.87427 3.135 5.23177 3.645 3.67627 4.3605C3.66295 4.36558 3.65182 4.37512 3.64477 4.3875C0.533765 9.036 -0.319735 13.5705 0.0987651 18.048C0.100265 18.069 0.113765 18.09 0.130265 18.1035C1.94185 19.4454 3.96815 20.47 6.12277 21.1335C6.13798 21.1383 6.15432 21.1381 6.16943 21.133C6.18454 21.1279 6.19761 21.1181 6.20677 21.105C6.66877 20.475 7.07977 19.8105 7.43377 19.1115C7.44114 19.0971 7.44367 19.0807 7.44097 19.0648C7.43826 19.0488 7.43048 19.0342 7.41877 19.023C7.41101 19.0157 7.40182 19.0101 7.39177 19.0065C6.74551 18.7581 6.11961 18.4597 5.51977 18.114C5.50301 18.1045 5.49055 18.0889 5.48497 18.0705C5.47938 18.0521 5.4811 18.0322 5.48977 18.015C5.49487 18.0038 5.50259 17.9941 5.51227 17.9865C5.63827 17.892 5.76427 17.793 5.88427 17.694C5.89487 17.6855 5.90759 17.68 5.92106 17.6781C5.93454 17.6763 5.94826 17.6781 5.96077 17.6835C9.88927 19.4775 14.1418 19.4775 18.0223 17.6835C18.0352 17.6779 18.0495 17.6759 18.0635 17.6777C18.0775 17.6796 18.0907 17.6852 18.1018 17.694C18.2218 17.793 18.3478 17.892 18.4738 17.9865C18.484 17.994 18.4922 18.0038 18.4976 18.0152C18.5031 18.0266 18.5056 18.0392 18.505 18.0519C18.5045 18.0645 18.5007 18.0768 18.4942 18.0876C18.4877 18.0985 18.4786 18.1075 18.4678 18.114C17.8693 18.4629 17.2426 18.7609 16.5943 19.005C16.5839 19.0087 16.5745 19.0147 16.5668 19.0225C16.559 19.0303 16.553 19.0397 16.5493 19.05C16.5458 19.06 16.5444 19.0706 16.5452 19.0812C16.546 19.0918 16.5489 19.1021 16.5538 19.1115C16.9138 19.809 17.3263 20.475 17.7793 21.105C17.7884 21.1181 17.8015 21.1279 17.8166 21.133C17.8317 21.1381 17.8481 21.1383 17.8633 21.1335C20.0215 20.472 22.0511 19.4473 23.8648 18.1035C23.8739 18.0972 23.8814 18.089 23.8869 18.0793C23.8923 18.0697 23.8955 18.059 23.8963 18.048C24.3973 12.8715 23.0578 8.3745 20.3473 4.389C20.3445 4.38242 20.3405 4.37648 20.3353 4.37157C20.3301 4.36666 20.324 4.36289 20.3173 4.3605ZM8.02027 15.321C6.83677 15.321 5.86327 14.235 5.86327 12.903C5.86327 11.5695 6.81877 10.4835 8.02027 10.4835C9.23077 10.4835 10.1953 11.5785 10.1773 12.903C10.1773 14.235 9.22177 15.321 8.02027 15.321ZM15.9943 15.321C14.8123 15.321 13.8373 14.235 13.8373 12.903C13.8373 11.5695 14.7928 10.4835 15.9943 10.4835C17.2048 10.4835 18.1708 11.5785 18.1513 12.903C18.1513 14.235 17.2048 15.321 15.9943 15.321Z" fill="#121511"/>
</g>
<defs>
<clipPath id="clip0_11_1345">
<rect width="24" height="24" fill="white"/>
</clipPath>
</defs>
</svg>
