<svg width="32" height="25" viewBox="0 0 32 25" fill="none" xmlns="http://www.w3.org/2000/svg">
<path d="M0.1 3.15217C0.301636 2.25668 0.797311 1.45712 1.50584 0.884449C2.21438 0.311779 3.09377 -6.18159e-05 4 9.19124e-09H28C28.9062 -6.18159e-05 29.7856 0.311779 30.4942 0.884449C31.2027 1.45712 31.6984 2.25668 31.9 3.15217L16 13.0019L0.1 3.15217ZM0 5.46714V19.8678L11.606 12.6553L0 5.46714ZM13.522 13.8452L0.382 22.0084C0.706653 22.7023 1.21905 23.2884 1.85956 23.6986C2.50007 24.1088 3.24235 24.3262 4 24.3254H28C28.7575 24.3256 29.4995 24.1077 30.1397 23.6972C30.7798 23.2867 31.2918 22.7003 31.616 22.0064L18.476 13.8432L16 15.3777L13.522 13.8432V13.8452ZM20.394 12.6573L32 19.8678V5.46714L20.394 12.6553V12.6573Z" fill="#121511"/>
</svg>
