<svg width="69" height="69" viewBox="0 0 69 69" fill="none" xmlns="http://www.w3.org/2000/svg">
<g clip-path="url(#clip0_11_716)">
<path d="M68.2453 0.517586C68.5993 0.81973 68.846 1.22828 68.9486 1.68221C69.0512 2.13614 69.0042 2.61108 68.8146 3.03609C62.2164 17.828 48.3604 38.2692 38.2174 48.9211C35.3744 51.9009 31.8681 54.1675 27.9838 55.5365C27.9062 56.5154 27.725 57.8566 27.2938 59.2797C26.427 62.1217 24.4174 65.6579 19.928 66.7835C15.5803 67.8188 11.0746 68.012 6.65417 67.3527C5.8322 67.2229 5.0218 67.0282 4.23054 66.7705C3.4985 66.5478 2.8162 66.1861 2.22092 65.7053C1.82835 65.3715 1.52586 64.9444 1.34117 64.4633C1.11225 63.846 1.11839 63.166 1.35842 62.5529C1.7681 61.4963 2.72117 60.9142 3.34648 60.6036C5.0456 59.7541 6.04179 58.6501 7.08542 57.0415C7.4951 56.4205 7.87892 55.7607 8.3231 55.006L8.82767 54.1521C9.47886 53.0525 10.2335 51.8234 11.1823 50.4951C13.4593 47.3082 16.3616 46.5061 18.7119 46.6311C19.2553 46.6613 19.7599 46.739 20.2127 46.8381C20.48 46.0964 20.825 45.1994 21.239 44.2161C22.3646 41.5467 24.0767 38.0967 26.358 35.2936C35.742 23.7792 53.0092 8.53021 65.6751 0.345086C66.065 0.0934063 66.5257 -0.025748 66.9888 0.00532972C67.4518 0.0364074 67.8925 0.216058 68.2453 0.517586ZM20.2903 51.3706C19.718 51.1217 19.1063 50.9757 18.4834 50.9393C17.4225 50.8833 16.0123 51.155 14.6927 53.005C13.8431 54.191 13.1617 55.2993 12.5364 56.3558L12.0836 57.1191C11.6265 57.8997 11.165 58.6803 10.7036 59.3961C9.83023 60.8112 8.72183 62.0669 7.4261 63.1092C10.4017 63.5922 14.9126 63.5879 18.8844 62.5917C21.2951 61.9923 22.5199 60.1379 23.1667 58.0205C23.479 56.9685 23.6615 55.8823 23.7101 54.7861L20.2903 51.3706ZM26.5003 51.4827C27.0178 51.3102 27.6949 51.0515 28.4754 50.6935C30.9597 49.541 33.2052 47.9318 35.0951 45.9498C43.2889 37.342 54.1219 21.9291 61.1944 8.72859C50.025 17.0388 37.191 28.8248 29.7045 38.0191C27.7984 40.3608 26.276 43.3795 25.2109 45.8937C24.689 47.1357 24.288 48.2225 24.0249 48.9987V49.003L26.5046 51.4827H26.5003ZM5.05423 64.5927L5.08442 64.5711C5.07515 64.5782 5.065 64.584 5.05423 64.5884V64.5927ZM20.5016 51.4698L20.5102 51.4741H20.5016V51.4698Z" fill="#121511"/>
</g>
<defs>
<clipPath id="clip0_11_716">
<rect width="69" height="69" fill="white"/>
</clipPath>
</defs>
</svg>
