<svg width="69" height="69" viewBox="0 0 69 69" fill="none" xmlns="http://www.w3.org/2000/svg">
<g clip-path="url(#clip0_11_691)">
<path fill-rule="evenodd" clip-rule="evenodd" d="M47.4375 64.6875C52.0125 64.6875 56.4001 62.8701 59.6351 59.6351C62.8701 56.4001 64.6875 52.0125 64.6875 47.4375C64.6875 42.8625 62.8701 38.4749 59.6351 35.2399C56.4001 32.0049 52.0125 30.1875 47.4375 30.1875C42.8625 30.1875 38.4749 32.0049 35.2399 35.2399C32.0049 38.4749 30.1875 42.8625 30.1875 47.4375C30.1875 52.0125 32.0049 56.4001 35.2399 59.6351C38.4749 62.8701 42.8625 64.6875 47.4375 64.6875ZM69 47.4375C69 53.1562 66.7282 58.6407 62.6845 62.6845C58.6407 66.7282 53.1562 69 47.4375 69C41.7188 69 36.2343 66.7282 32.1905 62.6845C28.1468 58.6407 25.875 53.1562 25.875 47.4375C25.875 41.7188 28.1468 36.2343 32.1905 32.1905C36.2343 28.1468 41.7188 25.875 47.4375 25.875C53.1562 25.875 58.6407 28.1468 62.6845 32.1905C66.7282 36.2343 69 41.7188 69 47.4375Z" fill="#121511"/>
<path d="M40.7016 51.5085C40.9043 54.0788 42.9355 56.0798 46.5795 56.3213V58.2188H48.1967V56.3083C51.9701 56.0452 54.1738 54.027 54.1738 51.1031C54.1738 48.438 52.492 47.0666 49.4732 46.3594L48.1967 46.0575V40.8825C49.8182 41.0679 50.8446 41.952 51.0904 43.1768H53.928C53.7253 40.6971 51.5993 38.7608 48.1967 38.5494V36.6562H46.5795V38.5969C43.3581 38.9117 41.1673 40.848 41.1673 43.5907C41.1673 46.0144 42.7975 47.5582 45.51 48.1879L46.5795 48.4509V53.9364C44.9235 53.6863 43.8238 52.7721 43.578 51.5085H40.6973H40.7016ZM46.5666 45.6694C44.9753 45.3028 44.1128 44.5481 44.1128 43.4182C44.1128 42.1504 45.0443 41.2016 46.5795 40.9256V45.6694H46.5666ZM48.4296 48.8865C50.3659 49.335 51.2543 50.0595 51.2543 51.3403C51.2543 52.8022 50.146 53.8027 48.1967 53.9882V48.8348L48.4296 48.8865Z" fill="#121511"/>
<path d="M4.3125 0C3.16875 0 2.07185 0.454351 1.2631 1.2631C0.454351 2.07185 0 3.16875 0 4.3125L0 38.8125C0 39.9562 0.454351 41.0531 1.2631 41.8619C2.07185 42.6706 3.16875 43.125 4.3125 43.125H21.9204C22.1706 41.6415 22.5457 40.2011 23.0331 38.8125H12.9375C12.9375 36.525 12.0288 34.3312 10.4113 32.7137C8.7938 31.0962 6.59999 30.1875 4.3125 30.1875V12.9375C6.59999 12.9375 8.7938 12.0288 10.4113 10.4113C12.0288 8.7938 12.9375 6.59999 12.9375 4.3125H56.0625C56.0625 6.59999 56.9712 8.7938 58.5887 10.4113C60.2062 12.0288 62.4 12.9375 64.6875 12.9375V28.152C66.3262 29.6182 67.7796 31.2915 69 33.1286V4.3125C69 3.16875 68.5456 2.07185 67.7369 1.2631C66.9281 0.454351 65.8312 0 64.6875 0L4.3125 0Z" fill="#121511"/>
<path d="M43.1164 21.9204L43.125 21.5625C43.1241 20.0772 42.7397 18.6174 42.009 17.3243C41.2783 16.0312 40.226 14.9487 38.9541 14.1817C37.6822 13.4147 36.2338 12.9891 34.7492 12.9462C33.2646 12.9033 31.794 13.2445 30.4799 13.9368C29.1659 14.6291 28.0528 15.6489 27.2487 16.8977C26.4445 18.1464 25.9764 19.5816 25.8897 21.0643C25.803 22.5471 26.1007 24.027 26.7539 25.3609C27.4072 26.6949 28.3938 27.8375 29.6183 28.6781C33.3432 25.1301 38.0439 22.7768 43.1164 21.9204Z" fill="#121511"/>
</g>
<defs>
<clipPath id="clip0_11_691">
<rect width="69" height="69" rx="4" fill="white"/>
</clipPath>
</defs>
</svg>
