<svg width="69" height="69" viewBox="0 0 69 69" fill="none" xmlns="http://www.w3.org/2000/svg">
<path d="M30.1875 60.375C30.1875 60.375 25.875 60.375 25.875 56.0625C25.875 51.75 30.1875 38.8125 47.4375 38.8125C64.6875 38.8125 69 51.75 69 56.0625C69 60.375 64.6875 60.375 64.6875 60.375H30.1875ZM47.4375 34.5C50.8687 34.5 54.1594 33.1369 56.5857 30.7107C59.0119 28.2844 60.375 24.9937 60.375 21.5625C60.375 18.1313 59.0119 14.8406 56.5857 12.4143C54.1594 9.98805 50.8687 8.625 47.4375 8.625C44.0063 8.625 40.7156 9.98805 38.2893 12.4143C35.8631 14.8406 34.5 18.1313 34.5 21.5625C34.5 24.9937 35.8631 28.2844 38.2893 30.7107C40.7156 33.1369 44.0063 34.5 47.4375 34.5Z" fill="#121511"/>
<path fill-rule="evenodd" clip-rule="evenodd" d="M22.494 60.375C21.8547 59.0287 21.5359 57.5527 21.5625 56.0625C21.5625 50.2191 24.495 44.2031 29.9115 40.02C27.208 39.187 24.3913 38.7796 21.5625 38.8125C4.3125 38.8125 0 51.75 0 56.0625C0 60.375 4.3125 60.375 4.3125 60.375H22.494Z" fill="#121511"/>
<path d="M19.4062 34.5C22.2656 34.5 25.0079 33.3641 27.0297 31.3422C29.0516 29.3204 30.1875 26.5781 30.1875 23.7188C30.1875 20.8594 29.0516 18.1171 27.0297 16.0953C25.0079 14.0734 22.2656 12.9375 19.4062 12.9375C16.5469 12.9375 13.8046 14.0734 11.7828 16.0953C9.76088 18.1171 8.625 20.8594 8.625 23.7188C8.625 26.5781 9.76088 29.3204 11.7828 31.3422C13.8046 33.3641 16.5469 34.5 19.4062 34.5Z" fill="#121511"/>
</svg>
